<mxfile host="app.diagrams.net" agent="Mozilla/5.0 (Windows NT 10.0; Win64; x64) AppleWebKit/537.36 (KHTML, like Gecko) Chrome/137.0.0.0 Safari/537.36" version="27.1.4">
  <diagram name="Page-1" id="YppAgKmHBsdK-q3D0ge3">
    <mxGraphModel dx="1267" dy="526" grid="1" gridSize="10" guides="1" tooltips="1" connect="1" arrows="1" fold="1" page="1" pageScale="1" pageWidth="2000" pageHeight="2000" math="0" shadow="0">
      <root>
        <mxCell id="0" />
        <mxCell id="1" parent="0" />
        <mxCell id="hJJkqjWm1hT1Fd7Vq_wO-10" style="edgeStyle=orthogonalEdgeStyle;rounded=0;orthogonalLoop=1;jettySize=auto;html=1;exitX=0.5;exitY=1;exitDx=0;exitDy=0;entryX=0.5;entryY=0;entryDx=0;entryDy=0;fillColor=light-dark(transparent,#3333FF);strokeColor=light-dark(#000000,#3333FF);" parent="1" source="hJJkqjWm1hT1Fd7Vq_wO-1" target="hJJkqjWm1hT1Fd7Vq_wO-2" edge="1">
          <mxGeometry relative="1" as="geometry" />
        </mxCell>
        <mxCell id="hJJkqjWm1hT1Fd7Vq_wO-1" value="Date private" style="rounded=0;whiteSpace=wrap;html=1;" parent="1" vertex="1">
          <mxGeometry x="360" y="120" width="120" height="60" as="geometry" />
        </mxCell>
        <mxCell id="hJJkqjWm1hT1Fd7Vq_wO-11" style="edgeStyle=orthogonalEdgeStyle;rounded=0;orthogonalLoop=1;jettySize=auto;html=1;exitX=0.5;exitY=1;exitDx=0;exitDy=0;entryX=0.5;entryY=0;entryDx=0;entryDy=0;strokeColor=light-dark(#000000,#3333FF);" parent="1" source="hJJkqjWm1hT1Fd7Vq_wO-2" target="hJJkqjWm1hT1Fd7Vq_wO-3" edge="1">
          <mxGeometry relative="1" as="geometry" />
        </mxCell>
        <mxCell id="hJJkqjWm1hT1Fd7Vq_wO-2" value="Algoritm cryptografic" style="rounded=0;whiteSpace=wrap;html=1;" parent="1" vertex="1">
          <mxGeometry x="360" y="220" width="120" height="60" as="geometry" />
        </mxCell>
        <mxCell id="hJJkqjWm1hT1Fd7Vq_wO-15" style="edgeStyle=orthogonalEdgeStyle;rounded=0;orthogonalLoop=1;jettySize=auto;html=1;exitX=1;exitY=0.5;exitDx=0;exitDy=0;entryX=0;entryY=0.5;entryDx=0;entryDy=0;strokeColor=light-dark(#000000,#3333FF);" parent="1" source="hJJkqjWm1hT1Fd7Vq_wO-3" target="hJJkqjWm1hT1Fd7Vq_wO-5" edge="1">
          <mxGeometry relative="1" as="geometry" />
        </mxCell>
        <mxCell id="hJJkqjWm1hT1Fd7Vq_wO-3" value="Date criptate" style="rounded=0;whiteSpace=wrap;html=1;" parent="1" vertex="1">
          <mxGeometry x="360" y="320" width="120" height="60" as="geometry" />
        </mxCell>
        <mxCell id="hJJkqjWm1hT1Fd7Vq_wO-12" style="edgeStyle=orthogonalEdgeStyle;rounded=0;orthogonalLoop=1;jettySize=auto;html=1;exitX=0.5;exitY=1;exitDx=0;exitDy=0;entryX=0.5;entryY=0;entryDx=0;entryDy=0;fillColor=light-dark(transparent,#3333FF);strokeColor=light-dark(#000000,#3333FF);" parent="1" source="hJJkqjWm1hT1Fd7Vq_wO-4" target="hJJkqjWm1hT1Fd7Vq_wO-5" edge="1">
          <mxGeometry relative="1" as="geometry" />
        </mxCell>
        <mxCell id="hJJkqjWm1hT1Fd7Vq_wO-4" value="Imagine cover" style="rounded=0;whiteSpace=wrap;html=1;" parent="1" vertex="1">
          <mxGeometry x="550" y="120" width="120" height="60" as="geometry" />
        </mxCell>
        <mxCell id="hJJkqjWm1hT1Fd7Vq_wO-13" style="edgeStyle=orthogonalEdgeStyle;rounded=0;orthogonalLoop=1;jettySize=auto;html=1;exitX=0.5;exitY=1;exitDx=0;exitDy=0;entryX=0.5;entryY=0;entryDx=0;entryDy=0;strokeColor=light-dark(#000000,#3333FF);" parent="1" source="hJJkqjWm1hT1Fd7Vq_wO-5" target="hJJkqjWm1hT1Fd7Vq_wO-6" edge="1">
          <mxGeometry relative="1" as="geometry" />
        </mxCell>
        <mxCell id="hJJkqjWm1hT1Fd7Vq_wO-5" value="Algoritm steganografic" style="rounded=0;whiteSpace=wrap;html=1;" parent="1" vertex="1">
          <mxGeometry x="550" y="220" width="120" height="60" as="geometry" />
        </mxCell>
        <mxCell id="hJJkqjWm1hT1Fd7Vq_wO-6" value="Imagine rezultat" style="rounded=0;whiteSpace=wrap;html=1;" parent="1" vertex="1">
          <mxGeometry x="550" y="320" width="120" height="60" as="geometry" />
        </mxCell>
        <mxCell id="hJJkqjWm1hT1Fd7Vq_wO-7" value="&lt;font style=&quot;color: light-dark(rgb(0, 0, 0), rgb(51, 51, 255));&quot;&gt;Criptografie&lt;/font&gt;" style="text;html=1;align=center;verticalAlign=middle;resizable=0;points=[];autosize=1;strokeColor=none;fillColor=none;" parent="1" vertex="1">
          <mxGeometry x="375" y="80" width="90" height="30" as="geometry" />
        </mxCell>
        <mxCell id="hJJkqjWm1hT1Fd7Vq_wO-8" value="&lt;font style=&quot;color: light-dark(rgb(0, 0, 0), rgb(51, 51, 255));&quot;&gt;Steganografie&lt;/font&gt;" style="text;html=1;align=center;verticalAlign=middle;resizable=0;points=[];autosize=1;strokeColor=none;fillColor=none;" parent="1" vertex="1">
          <mxGeometry x="560" y="80" width="100" height="30" as="geometry" />
        </mxCell>
      </root>
    </mxGraphModel>
  </diagram>
</mxfile>
